<?xml version="1.0" encoding="UTF-8" standalone="no" ?>
<!DOCTYPE svg PUBLIC "-//W3C//DTD SVG 1.1//EN" "http://www.w3.org/Graphics/SVG/1.1/DTD/svg11.dtd">
<svg xmlns="http://www.w3.org/2000/svg" xmlns:xlink="http://www.w3.org/1999/xlink" version="1.1" width="1080" height="1080" viewBox="0 0 1080 1080" xml:space="preserve">
<desc>Created with Fabric.js 5.2.4</desc>
<defs>
</defs>
<g transform="matrix(1 0 0 1 540 540)" id="636e6b15-e9ee-4376-8ecf-0ad324cbdbd2"  >
</g>
<g transform="matrix(1 0 0 1 540 540)" id="b1fc14d8-d0e5-4426-b662-038606a86cd1"  >
<rect style="stroke: none; stroke-width: 1; stroke-dasharray: none; stroke-linecap: butt; stroke-dashoffset: 0; stroke-linejoin: miter; stroke-miterlimit: 4; fill: rgb(255,255,255); fill-rule: nonzero; opacity: 1; visibility: hidden;" vector-effect="non-scaling-stroke"  x="-540" y="-540" rx="0" ry="0" width="1080" height="1080" />
</g>
<g transform="matrix(1.55 0 0 1.55 540 540)"  >
<g style="" vector-effect="non-scaling-stroke"   >
		<g transform="matrix(0.13 0 0 -0.13 -8.51 -8.51)"  >
<path style="stroke: none; stroke-width: 1; stroke-dasharray: none; stroke-linecap: butt; stroke-dashoffset: 0; stroke-linejoin: miter; stroke-miterlimit: 4; fill: rgb(255,255,255); fill-rule: nonzero; opacity: 1;" vector-effect="non-scaling-stroke"  transform=" translate(-2560, -2560.9)" d="M 3075 4978 C 3009 4901 2945 4831 2932 4822 C 2913 4809 2885 4809 2727 4819 C 2532 4831 2457 4828 2258 4803 C 2189 4795 2121 4790 2108 4793 C 2095 4797 2022 4862 1946 4940 C 1869 5017 1803 5080 1798 5080 C 1785 5080 1217 4831 1208 4822 C 1203 4817 1207 4728 1215 4622 C 1228 4456 1228 4426 1216 4402 C 1208 4387 1161 4342 1111 4301 C 994 4206 846 4052 753 3925 C 712 3870 669 3819 657 3813 C 640 3803 585 3802 435 3806 L 235 3812 L 117 3504 C 53 3335 3 3194 8 3191 C 13 3188 80 3130 158 3062 C 243 2989 302 2929 306 2915 C 309 2902 307 2814 301 2721 C 289 2537 292 2443 317 2254 C 326 2187 330 2122 327 2109 C 324 2096 258 2022 180 1946 C 103 1869 40 1803 40 1798 C 40 1785 289 1217 298 1208 C 303 1203 392 1207 497 1215 C 617 1224 698 1227 712 1221 C 725 1216 773 1167 817 1113 C 920 988 1066 848 1195 753 C 1250 712 1301 669 1307 657 C 1317 640 1318 585 1314 435 L 1308 235 L 1616 117 C 1785 53 1926 3 1929 8 C 1932 13 1990 80 2058 158 C 2131 243 2191 302 2205 306 C 2218 309 2306 307 2399 301 C 2583 289 2677 292 2866 317 C 2933 326 2998 330 3011 327 C 3024 324 3098 258 3174 180 C 3251 103 3317 40 3322 40 C 3335 40 3903 289 3912 298 C 3917 303 3913 392 3905 497 C 3896 617 3893 698 3899 712 C 3904 725 3953 773 4007 817 C 4132 920 4272 1066 4367 1195 C 4408 1250 4451 1301 4463 1307 C 4480 1317 4535 1318 4685 1314 L 4885 1308 L 5003 1616 C 5067 1785 5117 1926 5112 1929 C 5107 1932 5040 1990 4962 2058 C 4877 2131 4818 2191 4814 2205 C 4811 2218 4813 2306 4819 2399 C 4831 2583 4828 2677 4803 2866 C 4794 2933 4790 2998 4793 3011 C 4796 3024 4862 3098 4940 3174 C 5017 3251 5080 3317 5080 3322 C 5080 3335 4831 3903 4822 3912 C 4817 3917 4728 3913 4622 3905 C 4456 3892 4426 3892 4402 3904 C 4387 3912 4342 3959 4301 4009 C 4206 4126 4052 4274 3925 4367 C 3870 4408 3819 4451 3813 4463 C 3803 4480 3802 4535 3806 4685 L 3812 4885 L 3519 4997 C 3357 5059 3218 5111 3210 5114 C 3200 5117 3155 5072 3075 4978 z M 2814 4314 C 3097 4270 3362 4164 3590 4002 C 3712 3915 3917 3711 4002 3590 C 4218 3284 4330 2933 4330 2560 C 4330 2187 4218 1836 4002 1530 C 3916 1408 3712 1204 3590 1118 C 3284 902 2933 790 2560 790 C 2187 790 1836 902 1530 1118 C 1409 1203 1205 1408 1118 1530 C 902 1835 790 2187 790 2560 C 790 2933 902 3284 1118 3590 C 1204 3712 1408 3916 1530 4002 C 1695 4119 1924 4226 2112 4276 C 2317 4330 2612 4346 2814 4314 z" stroke-linecap="round" />
</g>
		<g transform="matrix(0.13 0 0 -0.13 -4.86 -6.75)"  >
<path style="stroke: none; stroke-width: 1; stroke-dasharray: none; stroke-linecap: butt; stroke-dashoffset: 0; stroke-linejoin: miter; stroke-miterlimit: 4; fill: rgb(255,255,255); fill-rule: nonzero; opacity: 1;" vector-effect="non-scaling-stroke"  transform=" translate(-2565, -2570.08)" d="M 2395 4219 C 1705 4147 1121 3645 956 2981 C 915 2818 906 2741 906 2570 C 906 2162 1037 1806 1304 1491 C 1635 1098 2182 873 2693 918 C 3281 971 3785 1305 4046 1817 C 4168 2057 4224 2293 4224 2570 C 4224 2741 4215 2818 4174 2981 C 3978 3768 3208 4304 2395 4219 z M 3370 3811 C 3383 3785 3383 3405 3370 3379 C 3360 3361 3343 3360 2792 3360 L 2224 3360 L 2172 3334 C 2116 3306 2041 3230 2007 3166 C 1985 3126 1985 3115 1982 2660 C 1979 2164 1986 2028 2021 1935 C 2052 1852 2113 1781 2185 1745 L 2245 1715 L 2525 1715 C 2796 1715 2807 1716 2855 1738 C 2915 1766 2964 1811 2993 1865 C 3012 1901 3015 1924 3018 2096 C 3021 2264 3020 2289 3005 2303 C 2990 2318 2954 2320 2675 2320 C 2399 2320 2361 2322 2356 2336 C 2347 2359 2349 2763 2358 2778 C 2365 2788 2491 2790 2956 2788 L 3545 2785 L 3548 2325 C 3550 1890 3549 1861 3530 1787 C 3462 1523 3245 1308 2995 1255 C 2891 1233 2100 1233 2016 1255 C 1784 1316 1582 1532 1493 1815 L 1465 1905 L 1465 2570 L 1465 3235 L 1498 3319 C 1590 3559 1771 3748 1969 3811 C 2020 3827 2079 3829 2692 3829 C 3342 3830 3360 3829 3370 3811 z" stroke-linecap="round" />
</g>
</g>
</g>
</svg>